<svg id="Capa_1" data-name="Capa 1" xmlns="http://www.w3.org/2000/svg" viewBox="0 0 2000 1204.63"><defs><style>.cls-1{fill:blue;}.cls-2{fill:#24568e;}.cls-3{fill:#23aae2;}.cls-4{fill:#8da3c3;}</style></defs><path class="cls-1" d="M185.57,649.46l2-2A14.6,14.6,0,0,0,185.57,649.46Z"/><path class="cls-2" d="M114.57,857.56a97.72,97.72,0,0,1-41.77-9.32,88.1,88.1,0,0,1-33-26.27l-2.5-3.26,25.9-29.38L67,793.56c14.66,16.57,30.24,25,46.28,25,11,0,20.2-3.47,28-10.6s11.38-14.92,11.38-24.17a30.82,30.82,0,0,0-7.37-20.4c-5.22-6.29-17.71-14.54-37.11-24.52-22.6-11.38-37.62-22.68-45.9-34.53a66.51,66.51,0,0,1-12.73-40c0-19.52,6.8-36,20.21-48.92S100,595.94,120,595.94c23.21,0,46.79,11.35,70.08,33.72l3.59,3.45-26.57,27.76-3.61-3.48c-15.56-15-30.63-22.63-44.8-22.63a31.63,31.63,0,0,0-22.4,8.51c-6.12,5.62-9.09,12.06-9.09,19.7,0,6.41,2.54,12.49,7.76,18.6l.13.16c5.35,6.82,17.21,15,35.26,24.2,23.93,12.26,39.78,24,48.49,35.77a68.78,68.78,0,0,1,13,40.75c0,20.81-7.45,38.72-22.12,53.24S136.51,857.56,114.57,857.56Z"/><polygon class="cls-2" points="276.72 945.56 328.23 828.56 227.72 602.06 271.18 602.06 350.22 779.22 426.96 602.06 470.85 602.06 320.16 945.56 276.72 945.56"/><path class="cls-2" d="M695.92,857.34V738.11c0-27.12-1.13-45.38-3.35-54.27-3.33-14.54-9.85-24.84-19.39-30.71-9.93-6.1-25.15-9.2-45.23-9.2a77,77,0,0,0-46.83,15.19c-11.78,8.72-17.68,20.53-20.33,40.76-1.48,11.26-2.11,30.6-2.11,64.66v92.8h-41V761.48L517.24,736c-.44-12.66.09-23.68,1.58-32.67,3.3-28.32,10.74-49.53,22.09-63l.08-.11.09-.09c10.8-11.54,22-20.6,33.32-26.94l.23-.13.25-.1c17.63-7.54,37.84-11.36,60.08-11.36l3.79,0A101.93,101.93,0,0,1,691.33,616c16.23,9.61,28,22.75,34.92,39s10.23,40.4,10.23,74.15V857.34Z"/><path class="cls-3" d="M930.3,857.56c-40.36,0-72.43-13.48-95.31-40.07-22.68-26.37-34.19-56.6-34.19-89.86,0-31.44,9.77-59.82,29-84.34,24.46-31.41,57.76-47.35,98.94-47.35,42.05,0,76.21,16.3,101.56,48.43,18,22.63,27.13,51.15,27.29,84.76l0,5h-215c1.48,24.26,9.89,44.51,25.05,60.24,16.35,17,36,25.23,60,25.23a96.39,96.39,0,0,0,33.86-6.13,91,91,0,0,0,27.86-16c7.64-6.6,16.15-17.66,25.31-32.87l2.44-4.06,34.23,18.27-2.15,4.34c-8.53,17.23-18.76,31.32-30.38,41.89a123.67,123.67,0,0,1-39.38,24.23C965,854.77,948.45,857.56,930.3,857.56Zm82.16-159.83c-3.78-12.83-8.91-23.35-15.29-31.32-7.34-9.17-17.25-16.71-29.44-22.4a91.15,91.15,0,0,0-38.74-8.6c-22.07,0-41.3,7.22-57.17,21.45-10.27,9.29-18.44,23-24.33,40.87Z"/><path class="cls-2" d="M1113.41,856.91V724.74a114.38,114.38,0,0,1,3.7-29.12,107.27,107.27,0,0,1,6.78-19c10.52-25.78,24.92-45,42.83-57.15,18.2-12.34,33.12-18.33,45.61-18.33,9.29,0,19.24,3,29.58,9l4.46,2.57-20.79,33.62-3.82-1.4a27.67,27.67,0,0,0-9.49-1.75c-8.37,0-17,4.26-25.62,12.65-12.65,12.31-21.51,25.86-26.33,40.26-3.63,13.07-5.47,38.23-5.47,74.78v86Z"/><path class="cls-2" d="M1400.22,945.37c-21.15,0-40.38-3-57.16-9s-30.92-14.25-41.72-24.44-20.69-25.08-29.51-44.37l-3.23-7.07h44.07l1.44,2.5c8.65,15,19.85,26.16,33.29,33.25S1378.2,907,1398.69,907c20,0,37.13-3.76,50.81-11.19,13.53-7.34,23.24-16.56,28.86-27.4s8.53-29.06,8.61-54.09a120.21,120.21,0,0,1-35.38,25.09,131,131,0,0,1-119.89-4.76c-20.16-11.32-35.93-26.84-46.89-46.11a128.72,128.72,0,0,1,48.28-175.22c20.18-11.52,41.67-17.37,63.85-17.37,18.57,0,35.7,2.9,50.91,8.62,12.74,4.65,28,13.64,45.16,26.69l.16.13c11,9.07,20.28,24,27.67,44.51a127.62,127.62,0,0,1,7.51,44.44c-.11,15.64-.16,41-.16,77.63,0,34.57-3,59.31-9.29,75.62a100.42,100.42,0,0,1-44.16,53.29C1454,939.15,1429,945.37,1400.22,945.37Zm.65-309.74a92.64,92.64,0,0,0-46.14,12,87.74,87.74,0,0,0-33.3,33.09,90.9,90.9,0,0,0-12.11,45.79c0,24.84,8.38,45.62,24.92,61.74s38.4,24.36,64.89,24.36c27,0,48.93-8.11,65.07-24.11s24.3-37.43,24.3-63.73c0-17.11-3.79-32.53-11.27-45.83a82.5,82.5,0,0,0-31.75-31.64A89.3,89.3,0,0,0,1400.87,635.63Z"/><path class="cls-2" d="M1599.28,857.34V607.74h40.78v249.6Zm20.28-287.24a29.14,29.14,0,0,1-21.46-9,29.69,29.69,0,0,1-8.87-21.53,30.34,30.34,0,0,1,30.33-30.32,29.75,29.75,0,0,1,21.53,8.86,29.18,29.18,0,0,1,9,21.46,30.73,30.73,0,0,1-30.55,30.55Z"/><path class="cls-2" d="M1920,857.34V816.09c-18.9,24.22-48.22,38.15-87.42,41.45l-.21,0h-.21c-38,0-69.45-13.14-93.55-39s-36.17-56.39-36.17-90.88c0-34.32,11.53-64.55,34.26-89.84,25.21-27.77,57.32-41.85,95.46-41.85s70.23,14,95.42,41.6c23.19,25.14,35,55.46,35,90.09.22,65,.14,129.71.14,129.71ZM1802.35,814a117,117,0,0,0,24.75,2.84c40.38,0,69.36-24.8,88.56-75.82a159.12,159.12,0,0,0-6.27-55.66,91.84,91.84,0,0,0-15.8-22.43c-17.07-18-37.18-26.83-61.45-26.83S1787.5,644.86,1770,663c-17.33,17.88-26.12,39.79-26.12,65.11,0,16.35,4.51,32.33,13.41,47.5C1766,790.52,1781.2,803.44,1802.35,814Z"/><path class="cls-3" d="M1091.59,135.25h0a51,51,0,0,0-72.15,0L968.2,186.48,953,201.73l-13.09,13.1-3.29,3.28A24,24,0,0,0,953,257.31v.11h88.62l19.91-19.91,30.11-30.11A51,51,0,0,0,1091.59,135.25Z"/><path class="cls-4" d="M1148.74,323a51,51,0,0,0-51-51H938.36v-.11A24.06,24.06,0,0,1,916.49,248v-.17a3.91,3.91,0,0,0-6.65-2.93L867.73,287c-1.06,1.07-2.08,2.18-3,3.34L863,292.48c-.55.74-1.12,1.46-1.63,2.22s-.9,1.48-1.35,2.22-.84,1.36-1.22,2.06-.74,1.54-1.11,2.31-.71,1.46-1,2.22-.56,1.52-.83,2.28-.6,1.6-.85,2.43-.4,1.54-.6,2.31-.44,1.67-.61,2.53-.29,1.81-.42,2.72L853,318.5c-.13,1.51-.2,3-.2,4.53h0c0,1.51.07,3,.2,4.53l.37,2.72c.13.91.24,1.82.42,2.72s.4,1.69.61,2.54.37,1.54.6,2.3.56,1.62.85,2.43.52,1.53.83,2.28.68,1.48,1,2.22.71,1.55,1.11,2.31.81,1.38,1.22,2.06.87,1.5,1.35,2.22,1.08,1.48,1.63,2.21l1.67,2.19a50.91,50.91,0,0,0,6.4,6.4l2.18,1.67c.74.55,1.46,1.12,2.22,1.63s1.48.9,2.22,1.35,1.35.84,2.06,1.21,1.54.75,2.32,1.12,1.45.71,2.2,1,1.53.57,2.3.84,1.59.6,2.42.85,1.54.4,2.32.6,1.66.44,2.52.61,1.82.29,2.74.42l2.74.37c1.49.13,3,.2,4.48.2h159.75v.11a24.06,24.06,0,0,1,21.87,23.95v.17a3.89,3.89,0,0,0,6.63,2.91l41.75-41.75a50.87,50.87,0,0,0,14.93-36.25c0-.05,0-.1,0-.16Z"/><path class="cls-2" d="M1049,388.75v-.11H960.29L940.43,408.5,909.94,439a51,51,0,0,0,0,72.16h0a51,51,0,0,0,72.15,0l51.57-51.57,15.3-15.3,12.79-12.79,3.86-3.87A24,24,0,0,0,1049,388.75Z"/><rect class="cls-4" x="675.16" y="987.79" width="10.02" height="95.76"/><polygon class="cls-4" points="720.64 1083.55 720.64 997.29 701.9 997.29 701.9 987.79 749.28 987.79 749.28 997.29 730.67 997.29 730.67 1083.55 720.64 1083.55"/><path class="cls-4" d="M820.68,1084.33c-13.84,0-21.79-9.09-21.79-24.94v-6.71h9.76v7.11c0,10,3.9,14.91,11.9,14.91s11.9-4.88,11.9-14.91c0-9.59-6.87-14.59-14.83-20.38-8.6-6.25-18.33-13.33-18.33-27.6,0-15.86,7.63-24.67,21.5-24.81,13.71,0,21.55,9.09,21.55,24.94v4h-9.76v-4.35c0-10-3.91-15-11.63-15s-11.64,5-11.64,14.92,6.94,14.82,15,20.66c8.53,6.21,18.19,13.25,18.19,27.31C842.47,1075.24,834.53,1084.33,820.68,1084.33Z"/><path class="cls-4" d="M882.94,1084.33c-13.81,0-22.05-9.42-22.05-25.2V1012.2c0-15.78,8.24-25.2,22.05-25.2,14.18,0,22.32,9.19,22.32,25.2v46.93C905.26,1075.15,897.12,1084.33,882.94,1084.33Zm0-87.83c-8,0-12,5.15-12,15.31v47.72c0,10.15,4.05,15.3,12,15.3,8.16,0,12.3-5.15,12.3-15.3v-47.72C895.24,1001.65,891.1,996.5,882.94,996.5Z"/><polygon class="cls-4" points="924.33 1083.55 924.33 987.79 934.35 987.79 934.35 1074.05 963.19 1074.05 963.19 1083.55 924.33 1083.55"/><path class="cls-4" d="M1002.75,1084.33c-13.77,0-21.66-9.18-21.66-25.2V987.79h10v71.6c0,10.25,4,15.44,11.77,15.44s11.76-5.19,11.76-15.44v-71.6h9.63v71.34C1024.27,1075.15,1016.43,1084.33,1002.75,1084.33Z"/><polygon class="cls-4" points="1059.21 1083.55 1059.21 997.29 1040.59 997.29 1040.59 987.79 1087.98 987.79 1087.98 997.29 1069.23 997.29 1069.23 1083.55 1059.21 1083.55"/><rect class="cls-4" x="1104.56" y="987.79" width="10.02" height="95.76"/><path class="cls-4" d="M1155.84,1084.33c-13.81,0-22-9.42-22-25.2V1012.2c0-15.78,8.24-25.2,22-25.2,14.18,0,22.32,9.19,22.32,25.2v46.93C1178.16,1075.15,1170,1084.33,1155.84,1084.33Zm0-87.83c-8,0-12,5.15-12,15.31v47.72c0,10.15,4,15.3,12,15.3,8.16,0,12.3-5.15,12.3-15.3v-47.72C1168.14,1001.65,1164,996.5,1155.84,996.5Z"/><polygon class="cls-4" points="1232.03 1083.55 1206.73 1011.47 1206.73 1083.55 1197.23 1083.55 1197.23 987.79 1208.5 987.79 1232.62 1055.67 1232.62 987.79 1242.12 987.79 1242.12 1083.55 1232.03 1083.55"/><path class="cls-4" d="M1282.59,1084.33c-13.85,0-21.79-9.09-21.79-24.94v-6.71h9.76v7.11c0,10,3.89,14.91,11.9,14.91s11.9-4.88,11.9-14.91c0-9.59-6.88-14.59-14.84-20.38-8.59-6.25-18.33-13.33-18.33-27.6,0-15.86,7.64-24.67,21.51-24.81,13.71,0,21.55,9.09,21.55,24.94v4h-9.76v-4.35c0-10-3.91-15-11.63-15s-11.64,5-11.64,14.92,6.94,14.82,15,20.66c8.53,6.21,18.19,13.25,18.19,27.31C1304.38,1075.24,1296.44,1084.33,1282.59,1084.33Z"/><path class="cls-4" d="M588.19,1042.73H341.93a7.07,7.07,0,0,1,0-14.13H588.19a7.07,7.07,0,1,1,0,14.13Z"/><path class="cls-4" d="M1659.59,1042.73H1413.33a7.07,7.07,0,0,1,0-14.13h246.26a7.07,7.07,0,1,1,0,14.13Z"/></svg>