<svg id="Capa_1" data-name="Capa 1" xmlns="http://www.w3.org/2000/svg" viewBox="0 0 2000 1204.63"><defs><style>.cls-1{fill:#24568e;}.cls-2{fill:#23aae2;}.cls-3{fill:#8da3c3;}</style></defs><path class="cls-1" d="M475.14,706.35a78.36,78.36,0,0,1-33.42-7.45,70.49,70.49,0,0,1-26.38-21l-2-2.6,20.72-23.52,3,3.39c11.73,13.26,24.19,20,37,20a31.63,31.63,0,0,0,22.38-8.48c6.13-5.61,9.11-11.93,9.11-19.34a24.6,24.6,0,0,0-5.9-16.32c-4.18-5-14.17-11.64-29.69-19.62-18.08-9.1-30.11-18.15-36.73-27.63a53.26,53.26,0,0,1-10.18-32c0-15.62,5.44-28.79,16.16-39.14S463.48,497,479.51,497c18.57,0,37.44,9.08,56.07,27l2.88,2.76L517.2,549l-2.89-2.79c-12.45-12-24.51-18.1-35.85-18.1a25.34,25.34,0,0,0-17.92,6.81c-4.9,4.5-7.27,9.65-7.27,15.76,0,5.13,2,10,6.2,14.89l.11.13c4.28,5.45,13.77,12,28.21,19.35,19.15,9.82,31.84,19.18,38.8,28.63A55,55,0,0,1,537,646.26a57.91,57.91,0,0,1-17.7,42.6C507.55,700.47,492.7,706.35,475.14,706.35Z"/><polygon class="cls-1" points="604.89 776.76 646.1 683.14 565.68 501.91 600.45 501.91 663.7 643.67 725.1 501.91 760.22 501.91 639.64 776.76 604.89 776.76"/><path class="cls-1" d="M940.3,706.18V610.77c0-21.7-.9-36.31-2.68-43.42-2.67-11.63-7.88-19.87-15.52-24.57-7.94-4.88-20.12-7.36-36.18-7.36a61.63,61.63,0,0,0-37.47,12.15c-9.43,7-14.15,16.43-16.27,32.62-1.19,9-1.69,24.48-1.69,51.73v74.26H797.68v-76.7l-.35-20.38A135.47,135.47,0,0,1,798.59,583c2.65-22.66,8.6-39.62,17.68-50.42l.07-.09.07-.07c8.64-9.23,17.61-16.49,26.66-21.56l.19-.1.19-.08c14.11-6,30.28-9.09,48.07-9.09l3,0a81.5,81.5,0,0,1,42.07,11.48c13,7.69,22.38,18.2,27.94,31.23s8.19,32.32,8.19,59.33V706.18Z"/><path class="cls-2" d="M1127.84,706.35c-32.3,0-58-10.79-76.26-32.06-18.15-21.1-27.36-45.29-27.36-71.9a106.8,106.8,0,0,1,23.23-67.49C1067,509.77,1093.66,497,1126.62,497c33.64,0,61,13,81.26,38.75,14.36,18.1,21.71,40.93,21.83,67.82l0,4h-172c1.18,19.42,7.91,35.62,20,48.21,13.08,13.58,28.77,20.18,48,20.18a77.22,77.22,0,0,0,27.09-4.9,72.43,72.43,0,0,0,22.29-12.83c6.12-5.28,12.93-14.13,20.26-26.3l1.95-3.25,27.39,14.62L1223,646.8c-6.83,13.79-15,25.06-24.31,33.52a99,99,0,0,1-31.51,19.39C1155.6,704.12,1142.36,706.35,1127.84,706.35Zm65.74-127.88c-3-10.27-7.13-18.69-12.23-25.06-5.88-7.35-13.81-13.38-23.56-17.93a73,73,0,0,0-31-6.88c-17.66,0-33,5.78-45.75,17.16-8.21,7.44-14.75,18.43-19.46,32.71Z"/><path class="cls-1" d="M1274.36,705.83V600.08a91.07,91.07,0,0,1,3-23.3,85.28,85.28,0,0,1,5.42-15.17c8.41-20.62,19.94-36,34.26-45.72,14.57-9.88,26.51-14.67,36.5-14.67,7.44,0,15.4,2.41,23.67,7.17l3.57,2.05-16.64,26.9-3-1.11a22.1,22.1,0,0,0-7.6-1.4c-6.69,0-13.59,3.4-20.49,10.12-10.13,9.85-17.22,20.69-21.08,32.21-2.9,10.46-4.37,30.59-4.37,59.83v68.84Z"/><path class="cls-1" d="M1503.84,776.61c-16.92,0-32.31-2.43-45.74-7.22s-24.74-11.41-33.38-19.56-16.55-20.07-23.61-35.5l-2.59-5.66h35.27l1.15,2c6.92,12,15.88,20.93,26.63,26.61s24.65,8.62,41,8.62c16,0,29.7-3,40.65-8.95s18.59-13.25,23.09-21.92,6.83-23.26,6.89-43.28a96.14,96.14,0,0,1-28.31,20.07A104.79,104.79,0,0,1,1449,688a97,97,0,0,1-37.52-36.9A103.61,103.61,0,0,1,1501.22,497c14.86,0,28.56,2.32,40.73,6.9,10.19,3.72,22.36,10.91,36.14,21.35l.13.11c8.77,7.25,16.22,19.23,22.13,35.61a101.9,101.9,0,0,1,6,35.56c-.09,12.51-.13,32.83-.13,62.11,0,27.67-2.43,47.46-7.43,60.51a80.4,80.4,0,0,1-35.33,42.64C1546.89,771.63,1526.83,776.61,1503.84,776.61Zm.52-247.83a74.12,74.12,0,0,0-36.92,9.62,70.11,70.11,0,0,0-26.64,26.47,72.78,72.78,0,0,0-9.69,36.64c0,19.88,6.71,36.5,19.94,49.4s30.72,19.49,51.92,19.49c21.63,0,39.15-6.49,52.06-19.29s19.45-30,19.45-51c0-13.68-3-26-9-36.67a66.13,66.13,0,0,0-25.4-25.31A71.52,71.52,0,0,0,1504.36,528.78Z"/><path class="cls-1" d="M1663.11,706.18V506.46h32.64V706.18Zm16.23-229.83a23.3,23.3,0,0,1-17.17-7.23,23.74,23.74,0,0,1-7.1-17.22,24.29,24.29,0,0,1,24.27-24.26,23.75,23.75,0,0,1,17.22,7.09,23.3,23.3,0,0,1,7.23,17.17,24.58,24.58,0,0,1-24.45,24.45Z"/><path class="cls-1" d="M1919.72,706.18v-33c-15.12,19.38-38.59,30.52-70,33.17h-.34c-30.38,0-55.56-10.51-74.84-31.25s-28.95-45.11-28.95-72.71,9.22-51.65,27.41-71.89c20.18-22.22,45.87-33.48,76.38-33.48s56.2,11.2,76.36,33.29c18.55,20.11,28,44.37,28,72.08.18,52,.11,103.79.11,103.79Zm-94.12-34.71a93.27,93.27,0,0,0,19.8,2.28c32.31,0,55.5-19.85,70.87-60.67a127.44,127.44,0,0,0-5-44.54,73.75,73.75,0,0,0-12.63-17.95c-13.67-14.44-29.76-21.46-49.18-21.46s-35.71,7-49.74,21.5c-13.86,14.31-20.9,31.84-20.9,52.1a74.44,74.44,0,0,0,10.73,38C1796.54,652.71,1808.68,663.05,1825.6,671.47Z"/><rect class="cls-3" x="1663.11" y="732.39" width="4.63" height="44.25"/><polygon class="cls-3" points="1684.13 776.64 1684.13 736.78 1675.47 736.78 1675.47 732.39 1697.36 732.39 1697.36 736.78 1688.76 736.78 1688.76 776.64 1684.13 776.64"/><path class="cls-3" d="M1730.36,777c-6.4,0-10.07-4.2-10.07-11.52v-3.11h4.51v3.29c0,4.63,1.8,6.89,5.5,6.89s5.5-2.26,5.5-6.89c0-4.43-3.18-6.74-6.86-9.42-4-2.88-8.47-6.16-8.47-12.75,0-7.33,3.53-11.4,9.94-11.46s10,4.2,10,11.52v1.83h-4.51v-2c0-4.62-1.81-7-5.38-7s-5.38,2.31-5.38,6.89,3.21,6.85,6.92,9.55c3.94,2.87,8.41,6.12,8.41,12.62C1740.43,772.8,1736.76,777,1730.36,777Z"/><path class="cls-3" d="M1759.13,777c-6.38,0-10.19-4.35-10.19-11.64V743.67c0-7.29,3.81-11.64,10.19-11.64,6.55,0,10.31,4.24,10.31,11.64v21.69C1769.44,772.76,1765.68,777,1759.13,777Zm0-40.58c-3.69,0-5.56,2.38-5.56,7.07v22c0,4.69,1.87,7.07,5.56,7.07s5.68-2.38,5.68-7.07v-22C1764.81,738.8,1762.9,736.42,1759.13,736.42Z"/><polygon class="cls-3" points="1778.25 776.64 1778.25 732.39 1782.88 732.39 1782.88 772.25 1796.21 772.25 1796.21 776.64 1778.25 776.64"/><path class="cls-3" d="M1814.48,777c-6.36,0-10-4.24-10-11.64v-33h4.63v33.09c0,4.73,1.83,7.13,5.44,7.13s5.43-2.4,5.43-7.13V732.39h4.45v33C1824.43,772.76,1820.81,777,1814.48,777Z"/><polygon class="cls-3" points="1840.58 776.64 1840.58 736.78 1831.97 736.78 1831.97 732.39 1853.87 732.39 1853.87 736.78 1845.21 736.78 1845.21 776.64 1840.58 776.64"/><rect class="cls-3" x="1861.53" y="732.39" width="4.63" height="44.25"/><path class="cls-3" d="M1885.23,777c-6.38,0-10.19-4.35-10.19-11.64V743.67c0-7.29,3.81-11.64,10.19-11.64,6.55,0,10.31,4.24,10.31,11.64v21.69C1895.54,772.76,1891.78,777,1885.23,777Zm0-40.58c-3.69,0-5.56,2.38-5.56,7.07v22c0,4.69,1.87,7.07,5.56,7.07s5.68-2.38,5.68-7.07v-22C1890.91,738.8,1889,736.42,1885.23,736.42Z"/><polygon class="cls-3" points="1920.43 776.64 1908.74 743.33 1908.74 776.64 1904.35 776.64 1904.35 732.39 1909.56 732.39 1920.71 763.76 1920.71 732.39 1925.1 732.39 1925.1 776.64 1920.43 776.64"/><path class="cls-3" d="M1943.8,777c-6.4,0-10.07-4.2-10.07-11.52v-3.11h4.51v3.29c0,4.63,1.8,6.89,5.5,6.89s5.49-2.26,5.49-6.89c0-4.43-3.17-6.74-6.85-9.42-4-2.88-8.47-6.16-8.47-12.75,0-7.33,3.53-11.4,9.94-11.46s10,4.2,10,11.52v1.83h-4.51v-2c0-4.62-1.81-7-5.38-7s-5.38,2.31-5.38,6.89,3.21,6.85,6.92,9.55c3.94,2.87,8.41,6.12,8.41,12.62C1953.87,772.8,1950.2,777,1943.8,777Z"/><path class="cls-2" d="M251.58,440.49h0a43.89,43.89,0,0,0-62.07,0l-44.09,44.08L132.3,497.69,121,509l-2.83,2.82a20.67,20.67,0,0,0,14.09,33.73v.1h76.25l17.13-17.14,25.9-25.9A43.88,43.88,0,0,0,251.58,440.49Z"/><path class="cls-3" d="M300.75,602.05a43.89,43.89,0,0,0-43.89-43.89H119.75v-.1a20.68,20.68,0,0,1-18.81-20.6v-.15a3.37,3.37,0,0,0-5.73-2.52L59,571c-.91.91-1.79,1.87-2.62,2.86l-1.44,1.89c-.47.63-1,1.25-1.4,1.91s-.78,1.27-1.16,1.91-.72,1.17-1,1.78-.64,1.32-1,2-.61,1.26-.88,1.91-.48,1.3-.72,2-.52,1.38-.73,2.09-.34,1.32-.51,2-.39,1.44-.53,2.18-.25,1.55-.36,2.33l-.32,2.35c-.11,1.3-.17,2.59-.17,3.89h0c0,1.3.06,2.59.17,3.89l.32,2.34c.11.78.2,1.57.36,2.34s.35,1.46.53,2.18.31,1.33.51,2,.48,1.4.73,2.1.45,1.31.72,2,.58,1.27.88,1.91.61,1.33,1,2,.7,1.19,1,1.78.74,1.28,1.16,1.91.93,1.27,1.4,1.9l1.44,1.89a44,44,0,0,0,5.5,5.5l1.88,1.44c.63.47,1.25,1,1.91,1.4s1.27.78,1.91,1.16,1.16.72,1.77,1,1.33.65,2,1,1.25.61,1.89.88,1.32.48,2,.72,1.37.51,2.08.73,1.33.34,2,.51,1.44.38,2.17.53,1.57.25,2.36.36l2.36.32c1.29.11,2.57.17,3.86.17H227.46V646a20.7,20.7,0,0,1,18.81,20.61v.14A3.36,3.36,0,0,0,252,669.3l35.92-35.92a43.82,43.82,0,0,0,12.85-31.19v-.14Z"/><path class="cls-1" d="M214.91,658.6v-.1H138.62l-17.09,17.09L95.29,701.83a43.89,43.89,0,0,0,0,62.07h0a43.88,43.88,0,0,0,62.08,0l44.37-44.37,13.17-13.16,11-11,3.32-3.33a20.66,20.66,0,0,0-14.32-33.44Z"/></svg>